<svg xmlns="http://www.w3.org/2000/svg" width="25" height="24" viewBox="0 0 25 24" fill="none">
  <path d="M18.4981 7.15988C18.4381 7.14988 18.3681 7.14988 18.3081 7.15988C16.9281 7.10988 15.8281 5.97988 15.8281 4.57988C15.8281 3.14988 16.9781 1.99988 18.4081 1.99988C19.8381 1.99988 20.9881 3.15988 20.9881 4.57988C20.9781 5.97988 19.8781 7.10988 18.4981 7.15988Z" stroke="#52555C" stroke-width="1.25" stroke-linecap="round" stroke-linejoin="round"/>
  <path d="M17.4675 14.4399C18.8375 14.6699 20.3475 14.4299 21.4075 13.7199C22.8175 12.7799 22.8175 11.2399 21.4075 10.2999C20.3375 9.58992 18.8075 9.34991 17.4375 9.58991" stroke="#52555C" stroke-width="1.25" stroke-linecap="round" stroke-linejoin="round"/>
  <path d="M6.46852 7.15988C6.52852 7.14988 6.59852 7.14988 6.65852 7.15988C8.03852 7.10988 9.13852 5.97988 9.13852 4.57988C9.13852 3.14988 7.98852 1.99988 6.55852 1.99988C5.12852 1.99988 3.97852 3.15988 3.97852 4.57988C3.98852 5.97988 5.08852 7.10988 6.46852 7.15988Z" stroke="#52555C" stroke-width="1.25" stroke-linecap="round" stroke-linejoin="round"/>
  <path d="M7.49945 14.4399C6.12945 14.6699 4.61945 14.4299 3.55945 13.7199C2.14945 12.7799 2.14945 11.2399 3.55945 10.2999C4.62945 9.58992 6.15945 9.34991 7.52945 9.58991" stroke="#52555C" stroke-width="1.25" stroke-linecap="round" stroke-linejoin="round"/>
  <path d="M12.5001 14.63C12.4401 14.62 12.3701 14.62 12.3101 14.63C10.9301 14.58 9.83008 13.45 9.83008 12.05C9.83008 10.62 10.9801 9.46997 12.4101 9.46997C13.8401 9.46997 14.9901 10.63 14.9901 12.05C14.9801 13.45 13.8801 14.59 12.5001 14.63Z" stroke="#414141" stroke-width="1.09375" stroke-linecap="round" stroke-linejoin="round"/>
  <path d="M9.5907 17.78C8.1807 18.72 8.1807 20.26 9.5907 21.2C11.1907 22.27 13.8107 22.27 15.4107 21.2C16.8207 20.26 16.8207 18.72 15.4107 17.78C13.8207 16.72 11.1907 16.72 9.5907 17.78Z" stroke="#414141" stroke-width="1.09375" stroke-linecap="round" stroke-linejoin="round"/>
</svg>