<svg xmlns="http://www.w3.org/2000/svg" width="41" height="41" viewBox="0 0 41 41" fill="none">
  <g clip-path="url(#clip0_2555_4614)">
    <path d="M40.2757 25.2179C42.7464 14.4433 36.0147 3.70599 25.2401 1.23537C14.4656 -1.23525 3.72825 5.49642 1.25763 16.271C-1.21299 27.0455 5.51868 37.7829 16.2932 40.2535C27.0678 42.7241 37.8051 35.9924 40.2757 25.2179Z" fill="#ADD3D6"/>
    <path d="M20.7652 28.9816C25.0641 28.9816 28.549 24.1553 28.549 18.2017C28.549 12.2481 25.0641 7.42175 20.7652 7.42175C16.4664 7.42175 12.9814 12.2481 12.9814 18.2017C12.9814 24.1553 16.4664 28.9816 20.7652 28.9816Z" fill="white"/>
    <path d="M20.641 28.2711C14.1236 28.2711 8.3167 29.8464 4.4248 32.2866C8.0387 37.414 14.0001 40.7499 20.7646 40.7499C27.4673 40.7499 33.3978 37.4449 37.0117 32.4101C33.1507 29.8773 27.2511 28.2711 20.641 28.2711Z" fill="white"/>
    <path d="M21.9384 33.4602H19.56C17.9229 33.4602 16.5947 32.1321 16.5947 30.495V23.7305C16.5947 22.0934 17.9229 20.7653 19.56 20.7653H21.9384C23.5754 20.7653 24.9036 22.0934 24.9036 23.7305V30.495C24.9036 32.1321 23.5754 33.4602 21.9384 33.4602Z" fill="white"/>
    <path d="M14.1859 18.8194C14.433 20.5491 14.0315 22.0318 13.321 22.1553C12.6106 22.2789 11.8384 20.9816 11.6222 19.2518C11.406 17.5221 11.8075 16.0086 12.4871 15.885C13.1975 15.7615 13.9697 17.0897 14.1859 18.8194Z" fill="white"/>
    <path d="M27.3134 18.8195C27.0663 20.5492 27.4678 22.0318 28.1782 22.1554C28.8887 22.2789 29.6609 20.9816 29.8771 19.2519C30.1242 17.5222 29.7226 16.0395 29.0122 15.916C28.3018 15.7924 27.5296 17.0897 27.3134 18.8195Z" fill="white"/>
    <path d="M13.2595 17.7692C13.0123 16.0395 12.7344 14.3097 12.4873 12.58C12.3946 11.9622 12.3019 11.2827 12.5181 10.6958C12.7344 10.109 13.4139 9.64564 14.0008 9.86186C13.7537 8.65723 15.0818 7.76147 16.2556 7.39082C18.2015 6.71128 20.271 6.37151 22.3096 6.6495C24.3483 6.9275 26.3251 7.82325 27.7151 9.33676C28.1475 9.83097 28.5181 10.3561 28.7344 10.9738C29.1359 12.1476 28.8888 13.4449 28.6108 14.6804C28.3946 15.6379 28.2093 16.6263 27.993 17.5839C27.9313 17.8001 27.9004 18.0472 27.7459 18.2016C27.4988 18.4796 27.0973 18.4796 26.7266 18.4796C22.8656 18.4796 19.0046 18.5105 15.1436 18.5105C14.4332 18.5105 13.4757 18.3252 13.383 17.6148" fill="white"/>
  </g>
  <defs>
    <clipPath id="clip0_2555_4614">
      <rect width="40" height="40" fill="white" transform="translate(0.75 0.75)"/>
    </clipPath>
  </defs>
</svg>