<svg xmlns="http://www.w3.org/2000/svg" width="30" height="30" viewBox="0 0 30 30" fill="none">
  <path d="M26.25 9.35938H3.75C3.41872 9.35938 3.14062 9.08128 3.14062 8.75C3.14062 8.41872 3.41872 8.14062 3.75 8.14062H26.25C26.5813 8.14062 26.8594 8.41872 26.8594 8.75C26.8594 9.08128 26.5813 9.35938 26.25 9.35938Z" fill="#414141" stroke="#414141" stroke-width="0.65625"/>
  <path d="M26.25 15.6095H3.75C3.41872 15.6095 3.14062 15.3314 3.14062 15.0001C3.14062 14.6688 3.41872 14.3907 3.75 14.3907H26.25C26.5813 14.3907 26.8594 14.6688 26.8594 15.0001C26.8594 15.3314 26.5813 15.6095 26.25 15.6095Z" fill="#414141" stroke="#414141" stroke-width="0.65625"/>
  <path d="M26.25 21.8593H3.75C3.41872 21.8593 3.14062 21.5812 3.14062 21.2499C3.14062 20.9186 3.41872 20.6405 3.75 20.6405H26.25C26.5813 20.6405 26.8594 20.9186 26.8594 21.2499C26.8594 21.5812 26.5813 21.8593 26.25 21.8593Z" fill="#414141" stroke="#414141" stroke-width="0.65625"/>
</svg>