<svg width="1160" height="810" viewBox="0 0 1160 810" fill="none" xmlns="http://www.w3.org/2000/svg">
<path d="M1053.65 0.489888C1058.32 -0.443365 1064.05 -0.0431614 1070.58 1.69008C1077.12 3.42342 1090.58 10.2234 1094.98 13.9567C1096.05 14.89 1098.72 16.4902 1100.85 17.6901C1107.52 21.1567 1136.18 49.0225 1138.45 54.3561C1143.78 66.6228 1144.72 72.0899 1143.78 86.4899C1141.25 125.556 1138.85 147.557 1136.05 156.223C1131.38 171.423 1121.52 180.356 1100.18 188.889C1096.85 190.223 1096.72 190.623 1095.92 205.423C1095.38 213.689 1094.98 227.823 1094.98 236.756V253.023L1102.85 259.556C1147.92 297.156 1158.85 311.556 1159.38 335.023C1159.65 345.423 1157.25 382.089 1154.32 415.156C1152.05 440.756 1147.78 494.09 1144.98 531.823C1140.45 592.09 1138.72 611.556 1136.85 621.023C1134.72 632.223 1127.92 647.423 1121.52 654.889C1115.65 661.956 1099.78 672.756 1091.78 675.29C1081.78 678.223 1031.65 684.223 1022.58 683.423C1017.65 683.023 1012.18 681.289 1006.98 678.623C1002.72 676.356 998.583 674.49 997.783 674.49C997.116 674.49 994.183 676.49 991.117 679.023C981.384 687.156 975.383 689.156 949.384 692.756C935.917 694.756 919.25 696.356 912.316 696.356C895.25 696.489 890.583 694.222 862.983 671.156C833.517 646.623 828.717 641.823 825.917 634.089C822.984 625.956 818.983 625.29 818.983 632.756C818.983 635.557 818.05 645.024 816.983 653.69C815.383 667.156 814.317 671.156 809.917 680.356C801.25 698.223 788.583 709.956 771.516 715.556C763.116 718.49 720.583 723.823 706.583 723.823C693.783 723.823 689.116 721.956 678.583 712.356C673.25 707.689 664.85 700.623 659.65 696.623C643.384 684.223 634.316 674.49 631.516 666.756C630.183 663.023 628.316 659.823 627.516 659.823C625.65 659.823 624.983 663.29 622.316 686.223C620.05 705.69 618.05 712.357 611.783 720.756C607.383 726.623 594.983 735.69 586.45 739.023C583.65 740.223 575.517 741.823 568.45 742.49C561.383 743.29 552.717 744.489 548.983 745.156C545.383 745.956 532.45 747.689 520.316 749.156C508.183 750.623 485.383 753.69 469.65 755.957C435.784 760.89 426.183 760.756 414.183 755.29C409.917 753.29 403.516 748.89 400.05 745.556L393.917 739.423L389.917 747.29C384.983 756.756 377.783 764.09 369.516 767.69C363.249 770.49 318.45 777.423 279.65 781.69C269.384 782.89 247.383 785.289 230.717 787.156C194.983 791.156 193.25 791.156 184.583 788.356L177.917 786.223L172.183 790.089C157.65 800.089 147.916 802.623 104.316 807.823C65.9165 812.49 62.4497 811.289 31.5164 780.889C8.18331 757.956 4.44983 752.489 1.24984 736.889C-0.0834269 730.489 -0.349947 724.756 0.450039 715.556C2.05004 696.623 6.7169 651.156 9.65023 625.823C10.9836 613.29 13.7831 585.69 15.5164 564.49C17.3831 543.157 19.9166 516.489 20.9832 505.156C22.0499 493.823 23.6496 478.223 24.3162 470.49C24.9829 462.757 25.9162 453.957 26.3162 451.023C27.1162 446.223 26.7167 445.156 22.1834 439.823C12.3168 427.823 11.3836 419.556 17.6502 394.223C19.9169 385.157 23.6501 368.756 26.1834 357.823C28.5835 346.756 36.0495 314.756 42.8495 286.49C58.4495 221.157 63.383 200.223 67.783 181.156C71.9163 163.29 75.6499 155.156 83.783 146.49C91.9164 137.823 101.783 133.556 118.45 131.823C125.65 131.023 139.784 129.157 149.65 127.69C183.517 122.757 184.317 122.756 202.717 131.423L209.917 134.756L213.384 131.556C224.45 121.423 236.584 116.757 259.65 113.957C269.25 112.757 283.117 110.89 290.45 109.823C309.917 107.023 318.05 107.29 328.983 111.29C334.183 113.156 339.382 115.022 340.583 115.423C342.05 115.823 344.583 114.089 347.917 110.356C354.05 103.556 363.116 99.1559 374.849 97.1559C403.249 92.4892 445.917 86.4899 450.45 86.4899C456.317 86.4899 459.65 87.4229 472.583 92.3561L481.384 95.6901L487.384 90.3561C495.917 82.8896 505.517 79.0232 521.65 76.4899C529.383 75.2899 538.583 73.8231 542.05 73.0231C551.383 71.2898 561.65 71.5562 569.117 73.8229C578.05 76.4894 579.383 76.3564 586.583 71.9567C590.183 69.8234 596.316 67.1567 600.316 65.9567C611.116 62.89 649.65 56.6229 687.65 51.8229C706.05 49.5563 725.249 46.7568 730.316 45.6901C735.516 44.6234 746.583 42.8896 754.983 41.8229C775.117 39.4229 813.516 34.0895 856.316 27.8229C866.183 26.3562 882.984 24.2226 893.65 23.1559C919.384 20.3559 976.317 12.6229 1006.98 7.8229C1020.58 5.68956 1036.18 3.1561 1041.65 2.3561C1047.12 1.55612 1052.58 0.756549 1053.65 0.489888ZM1110.05 58.2233C1087.38 34.49 1067.52 22.3565 1054.98 24.7565C1053.12 25.0232 1041.78 26.7561 1029.65 28.6227C1017.52 30.356 1002.32 32.7562 995.65 33.8229C989.117 34.8896 971.917 37.2892 957.65 39.1559C885.784 48.7559 849.25 53.4232 825.65 56.4899C811.384 58.3566 794.85 60.6234 788.983 61.6901C783.117 62.7567 772.584 64.3564 765.65 65.0231C758.717 65.8231 745.25 67.6892 735.65 69.1559C718.05 71.8226 702.583 74.0897 650.983 81.2897C635.25 83.423 618.717 86.49 614.183 87.9567C603.784 91.2899 590.318 100.089 587.65 105.156C586.45 107.423 585.249 109.156 584.849 109.156C584.58 109.153 581.248 106.755 577.516 103.823C570.317 98.0897 564.05 95.823 555.65 95.8229C549.917 95.8229 516.451 101.423 508.183 103.823C500.05 106.09 496.317 112.357 493.65 128.223C492.717 133.157 491.516 137.156 490.849 137.156C490.315 137.154 486.316 133.822 482.183 129.69C477.917 125.69 470.85 119.823 466.45 116.756C456.183 109.823 449.117 109.157 429.384 113.023C421.65 114.49 410.317 116.356 404.183 117.156C381.251 119.956 368.984 122.489 365.65 124.889C360.584 128.623 356.716 137.29 354.849 149.823C353.916 156.09 352.85 161.156 352.316 161.156C351.782 161.155 349.249 157.956 346.583 154.089C341.383 146.09 328.317 135.556 320.717 133.023C314.583 131.023 300.716 131.956 268.05 136.623C243.117 140.089 235.65 142.356 227.25 148.623C222.317 152.489 220.717 155.69 218.717 166.49C216.983 176.09 215.65 177.29 212.717 171.823C208.45 163.956 200.45 156.223 193.384 153.156C183.784 149.023 175.116 148.489 158.316 151.156C150.316 152.356 135.516 154.49 125.516 155.823C115.516 157.156 105.516 159.156 103.116 160.356C97.9162 163.023 95.3827 168.09 92.8494 180.223C91.6494 185.557 88.9827 197.29 86.8494 206.49C84.7161 215.69 81.3836 229.69 79.3836 237.823C77.517 245.823 71.2498 271.689 65.5164 295.156C59.7831 318.623 52.5836 348.89 49.6502 362.49C46.7169 376.09 42.7166 392.623 40.9832 399.29C35.7832 418.223 36.05 419.556 46.45 429.556L55.2498 437.957L51.1161 461.957C46.1828 491.823 44.9836 501.423 41.6502 544.49C38.5836 583.156 33.5164 632.223 25.5164 702.356C22.4498 729.023 22.7169 735.023 27.6502 742.223C33.1176 750.224 69.2483 783.421 74.3162 785.156C77.9162 786.356 83.2498 786.09 100.583 783.823C139.916 778.89 154.316 775.423 158.849 770.089C160.716 767.69 165.65 750.49 165.65 745.823C165.65 741.556 166.983 741.556 170.316 746.089C175.916 753.823 184.717 762.357 189.25 764.49C192.983 766.357 196.05 766.623 204.183 765.823C215.25 764.89 250.184 761.023 275.65 757.957C284.45 756.89 304.85 754.49 320.983 752.49C364.85 747.29 369.383 744.49 373.116 719.69C374.316 712.09 375.65 704.89 376.183 703.823C376.85 702.623 379.917 701.556 384.45 701.156C388.45 700.756 392.316 699.957 393.25 699.423C394.183 698.89 395.916 700.09 397.783 702.756C399.516 705.156 404.984 712.356 409.917 718.623C417.25 728.089 420.184 730.623 425.917 733.156C432.583 736.089 433.65 736.09 444.983 734.756C451.65 733.823 464.183 732.223 472.983 731.156C579.25 717.823 586.983 716.223 592.45 707.29C596.45 700.89 597.25 696.089 600.316 665.156C601.916 649.424 603.649 635.292 604.316 633.69C605.25 631.29 608.05 630.357 623.917 627.423C641.25 624.09 642.583 623.69 645.917 619.556C649.117 615.69 649.517 615.423 650.45 617.556C650.983 619.023 650.983 625.423 650.583 631.957C650.05 638.89 650.317 646.623 651.117 650.49C652.584 657.69 650.317 655.157 684.583 686.223C695.516 695.957 704.583 701.689 707.917 700.623C709.252 700.223 721.384 698.756 734.983 697.156C748.583 695.689 762.184 693.823 765.384 693.023C775.65 690.223 786.983 677.556 790.983 664.49C791.783 661.557 792.984 648.623 793.65 635.823C794.317 619.557 795.383 611.024 796.849 607.69L798.849 602.756L810.583 601.823C824.449 600.623 834.449 598.223 840.583 594.49C842.983 593.023 846.183 591.823 847.516 591.823C849.916 591.823 849.917 592.623 849.117 606.49C848.317 618.89 848.583 621.823 850.45 625.957C852.851 631.024 882.184 657.29 896.717 667.423C906.316 674.223 906.85 674.223 934.583 670.49C970.316 665.557 970.984 665.423 977.117 659.29C983.25 653.29 985.65 646.89 985.65 636.756V630.223L998.05 641.556C1014.85 656.889 1019.38 659.823 1026.58 659.823C1029.78 659.823 1043.92 658.223 1058.05 656.356C1086.18 652.623 1091.65 650.623 1100.85 641.556C1103.65 638.756 1107.78 632.889 1109.78 628.356C1113.25 621.023 1113.92 617.689 1116.32 590.356C1117.65 573.956 1120.05 543.023 1121.65 521.823C1125.38 467.823 1128.32 430.223 1128.98 427.823C1129.25 426.756 1130.18 416.223 1130.98 404.49C1131.78 392.757 1133.38 372.757 1134.45 359.957C1136.18 341.157 1136.32 335.29 1134.98 329.556C1132.32 317.556 1121.92 306.623 1084.58 276.757C1076.18 270.09 1068.98 263.424 1068.45 261.957C1067.78 260.357 1067.92 254.89 1068.45 249.823C1068.98 244.623 1070.18 228.489 1070.85 213.823C1071.65 199.156 1072.98 182.623 1073.78 177.156L1075.25 167.023L1087.78 165.556C1105.12 163.423 1111.78 158.356 1114.18 145.156C1115.12 139.82 1120.32 78.6239 1120.32 72.7565C1120.32 70.0898 1117.78 66.4899 1110.05 58.2233ZM259.783 418.623C262.05 418.489 264.717 419.423 265.65 420.49C267.783 423.023 267.249 428.892 260.316 495.156C248.85 603.422 244.983 641.556 242.316 671.823C239.783 700.089 239.383 702.09 235.917 704.49C230.85 707.823 170.983 716.356 170.983 713.823C170.983 711.288 176.85 652.089 178.316 638.623C181.783 609.291 182.316 597.157 180.183 597.29C179.117 597.29 166.317 599.29 151.65 601.556L124.983 605.823L123.384 618.49C122.584 625.423 120.583 645.29 118.983 662.49C115.384 701.687 112.984 721.02 111.384 722.623C109.25 724.756 55.9161 733.156 50.8495 732.089C47.3832 731.423 46.9834 727.289 48.9832 709.957C50.0499 701.157 52.7166 674.89 54.9832 651.823C57.2499 628.756 60.4496 596.889 62.3162 581.156C64.0496 565.423 67.1161 538.09 68.8494 520.49C76.7159 446.892 76.9831 444.89 80.5828 443.556C81.5162 443.156 95.1166 441.156 110.717 439.023C146.85 434.223 144.183 432.49 141.116 459.423C136.849 495.156 133.65 525.69 133.65 530.756C133.65 535.69 133.783 535.823 138.583 535.823C145.116 535.823 173.783 532.089 182.983 530.089L190.316 528.49L192.05 509.823C198.449 443.158 199.916 430.357 201.783 428.49C202.85 427.423 210.316 425.556 218.316 424.356C251.783 419.289 255.783 418.756 259.783 418.623ZM414.316 399.423C425.25 398.089 430.85 398.49 432.05 400.757C432.716 402.09 433.65 406.756 434.183 411.156C434.583 415.556 441.65 465.29 449.65 521.823C468.984 658.623 469.783 665.157 467.783 671.423C466.583 675.156 462.582 676.357 436.983 679.69C426.05 681.29 414.851 682.89 412.183 683.29C408.05 683.956 406.983 683.557 404.583 680.49C402.983 678.49 401.65 675.29 401.65 673.423C401.65 669.823 396.316 631.424 395.783 630.756C395.516 630.623 391.25 631.023 386.183 631.823C381.117 632.49 367.117 634.224 354.983 635.423L333.116 637.823L331.384 643.823C330.584 647.156 327.25 659.69 324.183 671.556C319.117 691.423 318.316 693.557 315.116 694.756C310.313 696.49 255.25 703.156 254.05 702.089C252.85 700.755 255.25 691.421 265.116 661.156C269.649 646.889 281.65 609.69 291.65 578.49C317.25 498.757 336.85 438.756 342.45 422.889C346.85 410.49 347.517 409.157 351.384 407.957C354.851 406.89 374.051 404.222 414.316 399.423ZM591.65 376.623C597.25 375.956 611.784 377.023 619.65 378.757C643.917 383.957 663.783 403.556 670.316 428.623C672.85 438.623 672.85 459.557 670.316 471.957C665.25 495.823 654.05 521.29 643.25 533.29C632.317 545.423 607.783 560.623 592.983 564.356C588.583 565.423 578.183 567.289 569.917 568.356C561.518 569.423 554.451 570.623 553.917 571.023C553.517 571.556 552.716 579.823 552.05 589.556C551.116 605.023 549.383 622.49 545.783 651.556C545.25 656.09 543.917 660.89 542.717 661.957C541.65 663.023 536.05 664.756 530.183 665.823C512.317 668.89 481.784 672.49 480.849 671.423C480.316 671.023 480.716 663.156 481.516 654.223C484.983 617.423 494.05 519.956 498.316 471.156C504.583 401.156 505.65 392.089 507.917 390.356C510.054 388.489 553.384 380.889 573.65 378.623C581.383 377.823 589.517 376.889 591.65 376.623ZM764.316 353.29C778.983 351.29 806.85 351.556 815.65 353.823C839.383 359.823 856.184 375.957 863.917 399.69C866.85 409.024 867.65 436.89 865.25 450.49C861.383 473.023 851.117 493.556 836.45 508.623C817.65 527.689 795.116 538.49 762.583 543.823C753.783 545.29 746.316 546.756 746.05 547.023C745.25 547.824 744.717 552.493 741.65 593.823C740.05 613.556 738.184 631.423 737.384 633.423C736.45 636.09 734.85 637.29 731.783 637.69C729.516 638.09 716.716 640.223 703.25 642.49C676.45 646.89 673.65 646.623 673.65 640.089C673.65 638.088 675.117 617.556 676.983 594.49C678.717 571.423 680.85 543.823 681.65 533.156C683.117 512.622 687.916 453.022 692.316 401.156C693.783 383.958 694.983 368.893 694.983 367.69C694.983 366.223 696.85 365.023 700.717 364.09C706.45 362.623 748.849 355.423 764.316 353.29ZM1060.98 316.49C1082.45 313.023 1086.85 312.89 1088.85 316.09C1089.78 317.689 1089.25 327.956 1086.58 353.423C1084.58 372.756 1081.78 403.156 1080.32 421.156C1078.85 439.156 1076.72 463.957 1075.65 476.49C1074.58 488.89 1072.18 519.156 1070.32 543.556C1068.45 567.954 1066.32 589.419 1065.65 591.156C1064.98 592.889 1063.25 594.89 1061.92 595.69C1058.98 597.29 1026.58 602.357 1012.85 603.423C1004.05 604.09 1003.38 603.956 1001.38 601.023C1000.32 599.29 994.717 585.823 989.117 571.156C983.384 556.489 976.716 539.423 974.05 533.29C971.516 527.156 964.45 509.689 958.316 494.356C944.983 461.156 944.984 461.023 943.917 465.29C943.517 467.023 942.45 477.423 941.65 488.49C940.85 499.423 939.117 520.489 937.65 535.156C936.184 549.823 934.45 571.69 933.65 583.823C932.184 606.356 930.983 610.756 926.05 612.356C921.382 613.823 882.316 619.823 877.516 619.823C870.85 619.823 867.65 616.223 868.717 609.423C869.65 604.09 875.517 524.89 880.983 444.49C887.25 353.823 888.45 342.756 892.45 339.423C894.05 338.223 896.85 337.156 898.849 337.156C900.716 337.156 913.116 335.823 926.316 334.223C939.65 332.623 951.383 331.69 952.717 332.223C955.25 333.157 961.117 344.49 972.05 369.823C976.45 380.09 985.383 400.756 991.917 415.823C998.45 430.889 1005.92 448.223 1008.32 454.356C1012.32 464.223 1012.98 465.289 1013.78 462.356C1014.98 458.622 1019.25 411.289 1022.32 367.823C1024.72 334.623 1026.18 323.823 1028.72 322.223C1029.52 321.69 1032.98 320.889 1036.32 320.356C1039.65 319.823 1050.72 318.09 1060.98 316.49ZM379.783 488.09C379.383 487.823 378.45 488.89 377.783 490.623C373.65 500.355 351.656 574.203 352.583 575.156C352.85 575.556 357.783 574.89 363.516 573.823C369.25 572.756 376.716 571.823 380.05 571.823C390.85 571.823 390.583 573.023 386.583 540.889C384.583 525.289 382.45 507.156 381.65 500.623C380.984 494.089 380.05 488.49 379.783 488.09ZM581.65 437.29C577.65 437.29 572.717 437.956 570.717 438.623C568.05 439.689 566.983 441.156 566.45 444.889C565.117 452.756 561.916 483.423 560.849 496.09C559.783 510.09 560.05 510.357 573.65 507.957C595.25 504.09 608.05 486.223 606.717 462.356C605.917 446.49 596.583 437.29 581.65 437.29ZM796.316 423.423C791.249 415.823 778.316 410.89 768.316 412.757C760.317 414.09 756.317 416.09 755.65 418.889C754.984 422.489 750.983 476.222 750.983 482.356V486.889L759.384 486.223C783.517 484.223 799.383 465.823 799.65 439.69C799.65 429.69 799.25 427.689 796.316 423.423ZM310.45 182.756C307.917 269.29 305.383 330.889 303.516 351.823C301.25 377.69 300.85 380.357 298.316 382.49C296.581 383.823 274.049 386.89 253.384 388.49L241.65 389.423V385.423C241.65 383.288 242.85 370.756 244.183 357.69C248.45 318.623 252.583 265.156 251.516 265.156C251.249 265.158 247.516 275.558 240.983 294.49C226.317 336.89 205.517 391.023 202.983 393.69C201.648 395.024 181.782 398.49 174.849 398.49C169.516 398.49 168.316 396.623 168.316 388.356C168.316 386.089 166.049 370.223 163.116 353.023C160.316 335.823 156.583 311.823 154.849 299.423C153.116 287.156 151.383 277.156 150.849 277.156C150.449 277.157 149.65 279.157 149.25 281.423C148.85 283.823 146.317 298.356 143.65 313.823C140.984 329.156 136.85 352.623 134.45 365.823C131.917 379.023 129.516 392.623 129.116 396.09C128.583 399.423 127.516 402.89 126.583 403.556C124.848 405.023 93.9157 409.69 76.0496 411.29C67.7831 411.956 65.6502 411.823 65.6502 410.356C65.6507 409.421 68.5837 395.688 72.1834 379.823C78.9834 350.623 81.6496 338.223 88.3162 306.49C100.45 248.357 111.249 198.089 113.116 190.889C116.449 177.823 116.85 177.557 150.983 172.223C167.25 169.69 181.25 167.957 182.183 168.223C183.25 168.625 184.983 176.624 186.849 189.29C194.983 245.822 197.65 263.822 198.983 271.156C199.65 275.555 200.316 279.689 200.316 280.356C200.316 281.023 200.583 281.289 200.983 280.889C201.785 280.083 215.651 242.086 230.983 198.356C244.316 160.756 244.584 160.09 249.917 159.29C252.317 158.89 262.45 157.157 272.316 155.423C282.183 153.557 295.116 152.09 300.849 151.957L311.384 151.823L310.45 182.756ZM436.45 131.957C442.85 130.223 447.516 130.223 450.05 132.089C452.716 134.089 454.049 141.29 457.116 168.49C459.783 193.157 465.917 241.956 471.65 283.156C480.183 346.355 481.383 357.689 479.25 358.889C477.25 360.223 429.788 365.689 428.717 364.757C428.183 364.223 426.716 355.29 425.516 345.023C424.183 334.756 422.983 325.956 422.583 325.556C422.181 325.29 417.116 325.823 411.384 327.023C405.65 328.223 394.717 329.689 387.25 330.356C379.651 331.023 373.118 331.956 372.717 332.356C372.317 332.623 370.05 341.289 367.516 351.423C361.383 376.489 362.849 375.29 333.116 378.757C320.183 380.223 309.117 381.156 308.717 380.623C308.183 380.222 308.85 376.622 309.917 372.889C316.051 351.421 370.583 170.089 374.717 157.156L379.65 141.823L405.783 137.556C420.183 135.29 434.05 132.757 436.45 131.957ZM656.583 99.9567C657.116 99.9567 657.916 100.489 658.316 101.156C658.85 101.956 657.383 105.69 655.25 109.556C653.117 113.29 645.117 128.489 637.65 143.156C630.05 157.823 619.517 177.423 614.183 186.756C599.117 213.023 598.584 214.09 599.384 221.023C599.65 224.357 606.85 244.49 615.25 265.823C636.45 319.423 641.65 333.023 641.65 335.023C641.65 336.09 639.65 337.29 637.117 337.69C627.918 339.423 589.121 343.689 588.45 343.023C587.517 342.09 584.05 333.156 576.983 313.823C573.783 305.023 568.584 290.89 565.384 282.49C562.05 274.09 558.449 264.356 557.116 260.757C554.316 253.157 552.316 252.623 552.316 259.423C552.316 269.556 545.383 349.821 544.316 350.889C542.983 352.489 497.918 357.556 494.183 356.623C490.317 355.556 490.317 356.356 493.65 325.156C495.117 311.556 497.517 287.289 498.983 271.156C500.45 255.023 502.584 234.356 503.65 225.156C504.717 215.956 506.716 193.823 508.316 175.823C512.316 128.357 512.45 126.489 514.849 123.823C516.449 121.956 521.783 120.757 538.05 118.49C549.649 116.89 560.049 115.956 561.25 116.356C563.65 117.289 563.65 115.423 559.25 172.756C557.917 188.89 557.383 201.957 557.917 201.69C558.984 201.023 574.85 171.69 588.983 144.49C600.45 122.223 607.117 111.689 611.65 108.09C613.784 106.356 620.05 104.89 633.25 103.29C643.383 101.956 652.584 100.757 653.65 100.49C654.717 100.357 656.049 100.09 656.583 99.9567ZM777.65 93.4235C777.65 97.957 776.983 108.49 776.05 116.889C774.05 137.689 774.583 137.29 748.316 141.823C736.983 143.69 726.317 145.557 724.717 145.957C721.117 146.623 720.717 147.956 719.117 169.156C718.184 179.823 718.183 186.223 718.983 187.023C720.184 188.223 753.784 185.156 763.65 183.023C768.583 181.957 770.183 184.49 769.917 192.756C769.383 210.49 767.916 223.823 766.316 226.089C764.983 227.956 759.783 229.023 740.983 231.29C728.05 232.89 716.85 234.757 716.316 235.423C715.783 235.961 714.983 244.759 714.45 254.756L713.516 273.156H720.583C724.45 273.156 733.917 272.223 741.65 271.156C749.383 270.089 759.117 269.156 763.384 269.156H770.983V280.356C770.983 294.889 768.583 318.623 766.849 320.623C765.249 322.623 762.583 323.023 732.316 326.623C695.916 330.756 656.049 334.49 654.849 333.69C653.25 332.756 653.383 313.156 654.983 295.823C655.65 288.089 657.383 264.356 658.983 243.156C668.983 99.2896 668.85 101.423 670.717 99.5563C671.517 98.7563 680.184 97.2899 689.917 96.2233C699.65 95.2899 720.85 92.3567 736.983 89.9567C753.116 87.4234 768.849 85.4231 772.05 85.2897L777.65 85.1559V93.4235ZM889.65 71.0231L896.983 71.1559L896.583 76.4899C896.449 79.4236 895.65 90.2235 894.983 100.49C894.183 110.757 890.984 161.157 887.65 212.356C883.117 284.883 881.383 305.953 879.917 307.423C877.65 309.689 856.983 312.623 834.717 313.957L819.117 314.889L819.65 310.356C822.317 290.756 826.316 241.156 830.316 179.823C835.116 105.292 836.716 83.0246 837.783 80.2233C838.583 78.09 840.316 77.1565 844.583 76.4899C847.783 75.9566 857.516 74.4892 866.316 73.1559C875.116 71.8226 885.65 70.8898 889.65 71.0231ZM1057.52 45.6901C1058.32 44.8901 1062.45 45.0235 1064.85 45.9567C1067.52 46.89 1067.65 57.6897 1065.65 83.2897C1064.58 96.4896 1063.65 101.023 1061.92 102.756C1060.32 104.223 1053.52 105.69 1039.78 107.69C1028.85 109.157 1019.38 110.89 1018.72 111.556C1018.05 112.223 1017.25 117.823 1016.85 123.957C1007.78 280.756 1007.25 289.556 1004.58 292.09C1002.85 293.823 996.316 295.023 977.917 297.023C964.583 298.623 951.25 299.823 948.316 299.823C941.783 299.823 941.917 301.289 945.65 268.223C947.784 248.757 956.316 131.827 956.316 121.423C956.316 117.69 953.116 117.69 930.05 120.756C915.65 122.623 913.25 122.623 911.516 121.023C908.183 117.69 912.983 65.2892 916.717 65.1559C916.852 65.1556 923.918 64.2224 932.316 63.1559C986.711 56.3566 1056.57 46.6251 1057.52 45.6901ZM406.45 211.823C402.983 220.49 386.983 273.423 386.983 276.49C386.986 278.356 414.85 275.023 416.983 273.023C417.517 272.49 412.316 227.024 410.05 212.49L408.983 205.823L406.45 211.823Z" fill="white"/>
</svg>
