<svg width="22" height="32" viewBox="0 0 22 32" fill="none" xmlns="http://www.w3.org/2000/svg">
<path d="M16.4816 11.5444C14.18 11.5184 4.92786 11.5184 2.62784 11.5444C0.96428 11.564 -0.186545 13.0762 0.0250627 14.6958C0.236671 16.3056 1.7456 17.4011 3.35707 17.1146C4.5079 16.9095 5.20132 15.9996 5.20132 14.8878C5.20132 13.3203 3.57519 13.0094 2.98595 13.6898C2.98432 13.6914 2.4146 13.7175 2.4553 13.6898C3.37335 12.3616 4.97994 13.1168 5.19318 13.8152H13.9131C14.1263 13.1168 15.7345 12.3632 16.6509 13.6898C16.6916 13.7175 16.1219 13.6914 16.1203 13.6898C15.531 13.0078 13.9049 13.3203 13.9049 14.8878C13.9049 15.9996 14.5983 16.9095 15.7492 17.1146C17.3606 17.4011 18.8696 16.3056 19.0812 14.6958C19.296 13.0762 18.1452 11.564 16.4816 11.5444Z" fill="#A99068"/>
<path d="M5.56909 14.3574C5.46654 15.2169 5.75953 15.5424 6.64666 15.5229C7.61355 15.5017 11.4957 15.5017 12.4626 15.5229C13.3497 15.5424 13.6427 15.2169 13.5402 14.3574H5.56909Z" fill="#A99068"/>
<path d="M4.24267 9.96045C4.21011 9.2361 4.58775 8.75754 5.26653 8.75428C8.11021 8.73475 10.9539 8.73638 13.7976 8.75428C14.4601 8.75916 14.8166 9.19215 14.867 9.96207C11.3234 9.96045 7.7814 9.96045 4.24267 9.96045Z" fill="#A99068"/>
<path d="M3.6892 31.6928C3.67292 31.3265 3.86336 31.0856 4.20519 31.084C5.64087 31.0742 13.4443 31.0742 14.8784 31.084C15.2121 31.0856 15.3927 31.3054 15.4188 31.6928C13.6315 31.6928 5.47647 31.6928 3.6892 31.6928Z" fill="#A99068"/>
<path d="M5.11498 30.6102C5.0987 30.244 5.28915 30.0031 5.63097 30.0015C7.06665 29.9917 12.0199 29.9917 13.454 30.0015C13.7876 30.0031 13.9683 30.2228 13.9944 30.6102C12.2055 30.6102 6.90062 30.6102 5.11498 30.6102Z" fill="#A99068"/>
<path d="M16.0242 10.3984C16.0242 10.654 16.0242 10.8477 16.0242 11.074C11.7042 11.074 7.41177 11.074 3.08521 11.074C3.08521 10.8412 3.08521 10.6361 3.08521 10.3984C7.40201 10.3984 11.6944 10.3984 16.0242 10.3984Z" fill="#A99068"/>
<path d="M10.2473 29.6021C9.74593 29.6021 9.34062 29.6021 8.86206 29.6021C8.86206 23.7194 8.86206 22.0445 8.86206 16.1406C9.30318 16.1406 9.73454 16.1406 10.2473 16.1406C10.2473 21.9875 10.2473 23.6657 10.2473 29.6021Z" fill="#A99068"/>
<path d="M12.1827 29.6039C11.7074 29.6039 11.3004 29.6039 10.8088 29.6039C10.8088 23.7326 10.8088 22.056 10.8088 16.144C11.2386 16.144 11.6748 16.144 12.1827 16.144C12.1827 21.9665 12.1827 23.6512 12.1827 29.6039Z" fill="#A99068"/>
<path d="M6.92676 16.105C7.36462 16.105 7.74552 16.105 8.19478 16.105C8.19478 21.9616 8.19478 23.6447 8.19478 29.5681C7.809 29.5681 7.4102 29.5681 6.92676 29.5681C6.92676 23.7359 6.92676 22.0593 6.92676 16.105Z" fill="#A99068"/>
<path d="M12.7361 5.41903C12.8793 5.12115 13.047 4.76956 13.1935 4.4668C13.7192 4.71747 18.9395 7.23561 21.0344 8.25295C21.1678 8.31806 21.6887 8.58338 21.4429 9.0359C21.2069 9.47214 20.7235 9.21821 20.6226 9.16938C18.0328 7.91763 12.8305 5.48089 12.7361 5.41903Z" fill="#A99068"/>
<path d="M9.16309 4.34443C9.50166 3.63798 9.81907 2.97549 10.1462 2.29346C11.2141 2.80294 12.2493 3.29941 13.3383 3.81866C13.0111 4.50395 12.6969 5.16481 12.3616 5.86963C11.284 5.35526 10.239 4.85717 9.16309 4.34443Z" fill="#A99068"/>
<path d="M10.6526 1.45041C10.7584 1.24206 10.8463 1.06952 10.9586 0.853027C11.9515 1.33484 12.9233 1.80689 13.9325 2.29684C13.8397 2.50357 13.7616 2.67611 13.6574 2.90725C12.6547 2.42055 11.683 1.95013 10.6526 1.45041Z" fill="#A99068"/>
<path d="M10.6625 0.224782L10.6934 0.164555C10.7683 0.0180573 10.9457 -0.0405418 11.0938 0.0294516C12.0444 0.48685 13.5469 1.19492 14.5072 1.6572C14.6554 1.72883 14.7188 1.90462 14.6505 2.05275L14.6244 2.11135C14.5544 2.26598 14.3721 2.33272 14.2191 2.25947C13.2653 1.80045 11.7742 1.09889 10.8008 0.63172C10.6462 0.560099 10.5843 0.376163 10.6625 0.224782Z" fill="#A99068"/>
<path d="M9.96395 1.67009L9.99488 1.60987C10.0698 1.46337 10.2472 1.40477 10.3953 1.47476C11.3459 1.93216 12.8483 2.64024 13.8087 3.10252C13.9568 3.17414 14.0203 3.34994 13.952 3.49806L13.9259 3.55666C13.8559 3.7113 13.6736 3.77803 13.5206 3.70479C12.5667 3.24576 11.0757 2.5442 10.1023 2.07703C9.94931 2.00704 9.88745 1.82148 9.96395 1.67009Z" fill="#A99068"/>
<path d="M8.42578 5.8176C8.53159 5.60925 8.61948 5.43671 8.7318 5.22021C9.72473 5.70203 10.6965 6.17408 11.7057 6.66403C11.6129 6.87076 11.5348 7.0433 11.4306 7.27444C10.4279 6.78774 9.45615 6.31732 8.42578 5.8176Z" fill="#A99068"/>
<path d="M8.43393 4.5905L8.46485 4.53028C8.53973 4.38378 8.71715 4.32518 8.86528 4.39517C9.81589 4.85257 11.3183 5.56065 12.2787 6.02293C12.4268 6.09455 12.4903 6.27035 12.4219 6.41847L12.3959 6.47707C12.3259 6.63171 12.1436 6.69845 11.9906 6.6252C11.0367 6.16617 9.54568 5.46461 8.57229 4.99744C8.41928 4.92745 8.35742 4.74189 8.43393 4.5905Z" fill="#A99068"/>
<path d="M7.73739 6.03728L7.76832 5.97706C7.8432 5.83056 8.02062 5.77196 8.16875 5.84195C9.11935 6.29935 10.6218 7.00742 11.5821 7.4697C11.7303 7.54133 11.7938 7.71712 11.7254 7.86525L11.6993 7.92385C11.6293 8.07848 11.447 8.14522 11.294 8.07197C10.3402 7.61295 8.84915 6.91139 7.87575 6.44422C7.72274 6.3726 7.66089 6.18866 7.73739 6.03728Z" fill="#A99068"/>
</svg>
